<?xml version="1.0" encoding="UTF-8" standalone="no"?>
<!DOCTYPE svg PUBLIC "-//W3C//DTD SVG 1.1//EN"
 "http://www.w3.org/Graphics/SVG/1.1/DTD/svg11.dtd">
<!-- Generated by graphviz version 2.38.0 (20140413.2041)
 -->
<!-- Title: %3 Pages: 1 -->
<svg width="6622pt" height="221pt"
 viewBox="0.00 0.00 6622.00 221.00" xmlns="http://www.w3.org/2000/svg" xmlns:xlink="http://www.w3.org/1999/xlink">
<g id="graph0" class="graph" transform="scale(1 1) rotate(0) translate(4 217)">
<title>%3</title>
<polygon fill="white" stroke="none" points="-4,4 -4,-217 6618,-217 6618,4 -4,4"/>
<!-- 1 -->
<g id="node1" class="node"><title>1</title>
<polygon fill="none" stroke="black" points="5456,-206 5342,-206 5342,-154 5456,-154 5456,-206"/>
<polygon fill="none" stroke="black" points="5351,-180 5351,-201 5392,-201 5392,-180 5351,-180"/>
<text text-anchor="start" x="5354" y="-187.8" font-family="Times New Roman,serif" font-weight="bold" font-size="14.00">por li</text>
<polygon fill="none" stroke="black" points="5392,-180 5392,-201 5447,-201 5447,-180 5392,-180"/>
<text text-anchor="start" x="5395" y="-187.8" font-family="Times New Roman,serif" font-weight="bold" font-size="14.00">Sigla</text>
<polygon fill="none" stroke="black" points="5351,-159 5351,-180 5392,-180 5392,-159 5351,-159"/>
<text text-anchor="start" x="5354" y="-165.8" font-family="Bukyvede" font-size="14.00">por li</text>
<polygon fill="none" stroke="black" points="5392,-159 5392,-180 5447,-180 5447,-159 5392,-159"/>
<text text-anchor="start" x="5395" y="-165.8" font-family="Times New Roman,serif" font-size="14.00">BnF 354</text>
<polygon fill="none" stroke="black" points="5350,-158 5350,-202 5448,-202 5448,-158 5350,-158"/>
</g>
<!-- 7 -->
<g id="node7" class="node"><title>7</title>
<polygon fill="none" stroke="black" points="5818,-170 5541,-170 5541,-118 5818,-118 5818,-170"/>
<polygon fill="none" stroke="black" points="5550.5,-144 5550.5,-165 5685.5,-165 5685.5,-144 5550.5,-144"/>
<text text-anchor="start" x="5553.5" y="-151.8" font-family="Times New Roman,serif" font-weight="bold" font-size="14.00">descendre et dient</text>
<polygon fill="none" stroke="black" points="5685.5,-144 5685.5,-165 5809.5,-165 5809.5,-144 5685.5,-144"/>
<text text-anchor="start" x="5688.5" y="-151.8" font-family="Times New Roman,serif" font-weight="bold" font-size="14.00">Sigla</text>
<polygon fill="none" stroke="black" points="5550.5,-123 5550.5,-144 5685.5,-144 5685.5,-123 5550.5,-123"/>
<text text-anchor="start" x="5553.5" y="-129.8" font-family="Bukyvede" font-size="14.00">descendre et dient</text>
<polygon fill="none" stroke="black" points="5685.5,-123 5685.5,-144 5809.5,-144 5809.5,-123 5685.5,-123"/>
<text text-anchor="start" x="5688.5" y="-129.8" font-family="Times New Roman,serif" font-size="14.00">BnF 16998, BnF 354</text>
<polygon fill="none" stroke="black" points="5549,-122 5549,-166 5810,-166 5810,-122 5549,-122"/>
</g>
<!-- 1&#45;&gt;7 -->
<g id="edge1" class="edge"><title>1&#45;&gt;7</title>
<path fill="none" stroke="black" d="M5456.02,-172.758C5477.85,-169.936 5504,-166.557 5530.56,-163.123"/>
<polygon fill="black" stroke="black" points="5531.29,-166.558 5540.76,-161.805 5530.39,-159.616 5531.29,-166.558"/>
<text text-anchor="middle" x="5498.5" y="-173.8" font-family="Times New Roman,serif" font-size="14.00">BnF 354</text>
</g>
<!-- 2 -->
<g id="node2" class="node"><title>2</title>
<polygon fill="none" stroke="black" points="4681,-151 4511,-151 4511,-99 4681,-99 4681,-151"/>
<polygon fill="none" stroke="black" points="4520,-125 4520,-146 4548,-146 4548,-125 4520,-125"/>
<text text-anchor="start" x="4523" y="-132.8" font-family="Times New Roman,serif" font-weight="bold" font-size="14.00">. Si</text>
<polygon fill="none" stroke="black" points="4548,-125 4548,-146 4672,-146 4672,-125 4548,-125"/>
<text text-anchor="start" x="4551" y="-132.8" font-family="Times New Roman,serif" font-weight="bold" font-size="14.00">Sigla</text>
<polygon fill="none" stroke="black" points="4520,-104 4520,-125 4548,-125 4548,-104 4520,-104"/>
<text text-anchor="start" x="4523" y="-110.8" font-family="Bukyvede" font-size="14.00">. Si</text>
<polygon fill="none" stroke="black" points="4548,-104 4548,-125 4672,-125 4672,-104 4548,-104"/>
<text text-anchor="start" x="4551" y="-110.8" font-family="Times New Roman,serif" font-size="14.00">BnF 16998, BnF 354</text>
<polygon fill="none" stroke="black" points="4519,-103 4519,-147 4673,-147 4673,-103 4519,-103"/>
</g>
<!-- 3 -->
<g id="node3" class="node"><title>3</title>
<polygon fill="none" stroke="black" points="4928,-194 4779,-194 4779,-142 4928,-142 4928,-194"/>
<polygon fill="none" stroke="black" points="4788.5,-168 4788.5,-189 4851.5,-189 4851.5,-168 4788.5,-168"/>
<text text-anchor="start" x="4791.5" y="-175.8" font-family="Times New Roman,serif" font-weight="bold" font-size="14.00">ssaillent</text>
<polygon fill="none" stroke="black" points="4851.5,-168 4851.5,-189 4919.5,-189 4919.5,-168 4851.5,-168"/>
<text text-anchor="start" x="4854.5" y="-175.8" font-family="Times New Roman,serif" font-weight="bold" font-size="14.00">Sigla</text>
<polygon fill="none" stroke="black" points="4788.5,-147 4788.5,-168 4851.5,-168 4851.5,-147 4788.5,-147"/>
<text text-anchor="start" x="4791.5" y="-153.8" font-family="Bukyvede" font-size="14.00">ssaillent</text>
<polygon fill="none" stroke="black" points="4851.5,-147 4851.5,-168 4919.5,-168 4919.5,-147 4851.5,-147"/>
<text text-anchor="start" x="4854.5" y="-153.8" font-family="Times New Roman,serif" font-size="14.00">BnF 16998</text>
<polygon fill="none" stroke="black" points="4787,-146 4787,-190 4920,-190 4920,-146 4787,-146"/>
</g>
<!-- 2&#45;&gt;3 -->
<g id="edge2" class="edge"><title>2&#45;&gt;3</title>
<path fill="none" stroke="black" d="M4681.01,-139.139C4709.12,-143.87 4740.45,-149.142 4768.55,-153.872"/>
<polygon fill="black" stroke="black" points="4768.31,-157.38 4778.75,-155.588 4769.47,-150.477 4768.31,-157.38"/>
<text text-anchor="middle" x="4730" y="-154.8" font-family="Times New Roman,serif" font-size="14.00">BnF 16998</text>
</g>
<!-- 22 -->
<g id="node22" class="node"><title>22</title>
<polygon fill="none" stroke="black" points="4918,-124 4789,-124 4789,-72 4918,-72 4918,-124"/>
<polygon fill="none" stroke="black" points="4798.5,-98 4798.5,-119 4854.5,-119 4854.5,-98 4798.5,-98"/>
<text text-anchor="start" x="4801.5" y="-105.8" font-family="Times New Roman,serif" font-weight="bold" font-size="14.00">saillent</text>
<polygon fill="none" stroke="black" points="4854.5,-98 4854.5,-119 4909.5,-119 4909.5,-98 4854.5,-98"/>
<text text-anchor="start" x="4857.5" y="-105.8" font-family="Times New Roman,serif" font-weight="bold" font-size="14.00">Sigla</text>
<polygon fill="none" stroke="black" points="4798.5,-77 4798.5,-98 4854.5,-98 4854.5,-77 4798.5,-77"/>
<text text-anchor="start" x="4801.5" y="-83.8" font-family="Bukyvede" font-size="14.00">saillent</text>
<polygon fill="none" stroke="black" points="4854.5,-77 4854.5,-98 4909.5,-98 4909.5,-77 4854.5,-77"/>
<text text-anchor="start" x="4857.5" y="-83.8" font-family="Times New Roman,serif" font-size="14.00">BnF 354</text>
<polygon fill="none" stroke="black" points="4797,-76 4797,-120 4910,-120 4910,-76 4797,-76"/>
</g>
<!-- 2&#45;&gt;22 -->
<g id="edge3" class="edge"><title>2&#45;&gt;22</title>
<path fill="none" stroke="black" d="M4681.01,-116.122C4712.51,-112.794 4748.03,-109.04 4778.55,-105.815"/>
<polygon fill="black" stroke="black" points="4779.11,-109.275 4788.69,-104.743 4778.38,-102.313 4779.11,-109.275"/>
<text text-anchor="middle" x="4730" y="-116.8" font-family="Times New Roman,serif" font-size="14.00">BnF 354</text>
</g>
<!-- 5 -->
<g id="node5" class="node"><title>5</title>
<polygon fill="none" stroke="black" points="5257,-163 5026,-163 5026,-111 5257,-111 5257,-163"/>
<polygon fill="none" stroke="black" points="5035.5,-137 5035.5,-158 5124.5,-158 5124.5,-137 5035.5,-137"/>
<text text-anchor="start" x="5038.5" y="-144.8" font-family="Times New Roman,serif" font-weight="bold" font-size="14.00">encontre lui</text>
<polygon fill="none" stroke="black" points="5124.5,-137 5124.5,-158 5248.5,-158 5248.5,-137 5124.5,-137"/>
<text text-anchor="start" x="5127.5" y="-144.8" font-family="Times New Roman,serif" font-weight="bold" font-size="14.00">Sigla</text>
<polygon fill="none" stroke="black" points="5035.5,-116 5035.5,-137 5124.5,-137 5124.5,-116 5035.5,-116"/>
<text text-anchor="start" x="5038.5" y="-122.8" font-family="Bukyvede" font-size="14.00">encontre lui</text>
<polygon fill="none" stroke="black" points="5124.5,-116 5124.5,-137 5248.5,-137 5248.5,-116 5124.5,-116"/>
<text text-anchor="start" x="5127.5" y="-122.8" font-family="Times New Roman,serif" font-size="14.00">BnF 16998, BnF 354</text>
<polygon fill="none" stroke="black" points="5034,-115 5034,-159 5249,-159 5249,-115 5034,-115"/>
</g>
<!-- 3&#45;&gt;5 -->
<g id="edge4" class="edge"><title>3&#45;&gt;5</title>
<path fill="none" stroke="black" d="M4928.15,-160.017C4954.84,-157.124 4985.79,-153.77 5015.66,-150.532"/>
<polygon fill="black" stroke="black" points="5016.17,-153.996 5025.74,-149.439 5015.42,-147.037 5016.17,-153.996"/>
<text text-anchor="middle" x="4977" y="-160.8" font-family="Times New Roman,serif" font-size="14.00">BnF 16998</text>
</g>
<!-- 4 -->
<g id="node4" class="node"><title>4</title>
<polygon fill="none" stroke="black" points="1509,-134 1398,-134 1398,-82 1509,-82 1509,-134"/>
<polygon fill="none" stroke="black" points="1407.5,-108 1407.5,-129 1432.5,-129 1432.5,-108 1407.5,-108"/>
<text text-anchor="start" x="1410.5" y="-115.8" font-family="Times New Roman,serif" font-weight="bold" font-size="14.00">vit</text>
<polygon fill="none" stroke="black" points="1432.5,-108 1432.5,-129 1500.5,-129 1500.5,-108 1432.5,-108"/>
<text text-anchor="start" x="1435.5" y="-115.8" font-family="Times New Roman,serif" font-weight="bold" font-size="14.00">Sigla</text>
<polygon fill="none" stroke="black" points="1407.5,-87 1407.5,-108 1432.5,-108 1432.5,-87 1407.5,-87"/>
<text text-anchor="start" x="1410.5" y="-93.8" font-family="Bukyvede" font-size="14.00">vit</text>
<polygon fill="none" stroke="black" points="1432.5,-87 1432.5,-108 1500.5,-108 1500.5,-87 1432.5,-87"/>
<text text-anchor="start" x="1435.5" y="-93.8" font-family="Times New Roman,serif" font-size="14.00">BnF 16998</text>
<polygon fill="none" stroke="black" points="1406,-86 1406,-130 1501,-130 1501,-86 1406,-86"/>
</g>
<!-- 6 -->
<g id="node6" class="node"><title>6</title>
<polygon fill="none" stroke="black" points="1985,-103 1607,-103 1607,-51 1985,-51 1985,-103"/>
<polygon fill="none" stroke="black" points="1616,-77 1616,-98 1852,-98 1852,-77 1616,-77"/>
<text text-anchor="start" x="1619" y="-84.8" font-family="Times New Roman,serif" font-weight="bold" font-size="14.00">devant lui une maison de religion</text>
<polygon fill="none" stroke="black" points="1852,-77 1852,-98 1976,-98 1976,-77 1852,-77"/>
<text text-anchor="start" x="1855" y="-84.8" font-family="Times New Roman,serif" font-weight="bold" font-size="14.00">Sigla</text>
<polygon fill="none" stroke="black" points="1616,-56 1616,-77 1852,-77 1852,-56 1616,-56"/>
<text text-anchor="start" x="1619" y="-62.8" font-family="Bukyvede" font-size="14.00">devant lui une maison de religion</text>
<polygon fill="none" stroke="black" points="1852,-56 1852,-77 1976,-77 1976,-56 1852,-56"/>
<text text-anchor="start" x="1855" y="-62.8" font-family="Times New Roman,serif" font-size="14.00">BnF 16998, BnF 354</text>
<polygon fill="none" stroke="black" points="1615,-55 1615,-99 1977,-99 1977,-55 1615,-55"/>
</g>
<!-- 4&#45;&gt;6 -->
<g id="edge5" class="edge"><title>4&#45;&gt;6</title>
<path fill="none" stroke="black" d="M1509.21,-103.019C1533.83,-100.778 1564.55,-97.9811 1596.64,-95.0594"/>
<polygon fill="black" stroke="black" points="1596.99,-98.5415 1606.64,-94.1492 1596.36,-91.5704 1596.99,-98.5415"/>
<text text-anchor="middle" x="1558" y="-104.8" font-family="Times New Roman,serif" font-size="14.00">BnF 16998</text>
</g>
<!-- 5&#45;&gt;1 -->
<g id="edge7" class="edge"><title>5&#45;&gt;1</title>
<path fill="none" stroke="black" d="M5257.17,-156.299C5282.83,-160.616 5309.19,-165.054 5332.07,-168.904"/>
<polygon fill="black" stroke="black" points="5331.54,-172.365 5341.98,-170.573 5332.7,-165.462 5331.54,-172.365"/>
<text text-anchor="middle" x="5299.5" y="-170.8" font-family="Times New Roman,serif" font-size="14.00">BnF 354</text>
</g>
<!-- 5&#45;&gt;7 -->
<g id="edge6" class="edge"><title>5&#45;&gt;7</title>
<path fill="none" stroke="black" d="M5257.21,-132.286C5284.96,-131.336 5314.54,-130.482 5342,-130 5392.66,-129.112 5405.36,-128.408 5456,-130 5480.14,-130.759 5505.73,-131.979 5530.63,-133.392"/>
<polygon fill="black" stroke="black" points="5530.7,-136.901 5540.88,-133.986 5531.1,-129.913 5530.7,-136.901"/>
<text text-anchor="middle" x="5399" y="-133.8" font-family="Times New Roman,serif" font-size="14.00">BnF 16998</text>
</g>
<!-- 11 -->
<g id="node11" class="node"><title>11</title>
<polygon fill="none" stroke="black" points="2193,-146 2083,-146 2083,-94 2193,-94 2193,-146"/>
<polygon fill="none" stroke="black" points="2092,-120 2092,-141 2116,-141 2116,-120 2092,-120"/>
<text text-anchor="start" x="2095" y="-127.8" font-family="Times New Roman,serif" font-weight="bold" font-size="14.00">. Il</text>
<polygon fill="none" stroke="black" points="2116,-120 2116,-141 2184,-141 2184,-120 2116,-120"/>
<text text-anchor="start" x="2119" y="-127.8" font-family="Times New Roman,serif" font-weight="bold" font-size="14.00">Sigla</text>
<polygon fill="none" stroke="black" points="2092,-99 2092,-120 2116,-120 2116,-99 2092,-99"/>
<text text-anchor="start" x="2095" y="-105.8" font-family="Bukyvede" font-size="14.00">. Il</text>
<polygon fill="none" stroke="black" points="2116,-99 2116,-120 2184,-120 2184,-99 2116,-99"/>
<text text-anchor="start" x="2119" y="-105.8" font-family="Times New Roman,serif" font-size="14.00">BnF 16998</text>
<polygon fill="none" stroke="black" points="2091,-98 2091,-142 2185,-142 2185,-98 2091,-98"/>
</g>
<!-- 6&#45;&gt;11 -->
<g id="edge9" class="edge"><title>6&#45;&gt;11</title>
<path fill="none" stroke="black" d="M1985.4,-100.827C2016.77,-104.795 2047.3,-108.656 2072.64,-111.861"/>
<polygon fill="black" stroke="black" points="2072.45,-115.364 2082.81,-113.147 2073.33,-108.42 2072.45,-115.364"/>
<text text-anchor="middle" x="2034" y="-113.8" font-family="Times New Roman,serif" font-size="14.00">BnF 16998</text>
</g>
<!-- 14 -->
<g id="node14" class="node"><title>14</title>
<polygon fill="none" stroke="black" points="2191,-76 2085,-76 2085,-24 2191,-24 2191,-76"/>
<polygon fill="none" stroke="black" points="2094,-50 2094,-71 2127,-71 2127,-50 2094,-50"/>
<text text-anchor="start" x="2097" y="-57.8" font-family="Times New Roman,serif" font-weight="bold" font-size="14.00">et il</text>
<polygon fill="none" stroke="black" points="2127,-50 2127,-71 2182,-71 2182,-50 2127,-50"/>
<text text-anchor="start" x="2130" y="-57.8" font-family="Times New Roman,serif" font-weight="bold" font-size="14.00">Sigla</text>
<polygon fill="none" stroke="black" points="2094,-29 2094,-50 2127,-50 2127,-29 2094,-29"/>
<text text-anchor="start" x="2097" y="-35.8" font-family="Bukyvede" font-size="14.00">et il</text>
<polygon fill="none" stroke="black" points="2127,-29 2127,-50 2182,-50 2182,-29 2127,-29"/>
<text text-anchor="start" x="2130" y="-35.8" font-family="Times New Roman,serif" font-size="14.00">BnF 354</text>
<polygon fill="none" stroke="black" points="2093,-28 2093,-72 2183,-72 2183,-28 2093,-28"/>
</g>
<!-- 6&#45;&gt;14 -->
<g id="edge8" class="edge"><title>6&#45;&gt;14</title>
<path fill="none" stroke="black" d="M1985.4,-62.0392C2017.58,-59.4834 2048.87,-56.9983 2074.59,-54.956"/>
<polygon fill="black" stroke="black" points="2075.2,-58.4188 2084.89,-54.1381 2074.64,-51.4408 2075.2,-58.4188"/>
<text text-anchor="middle" x="2034" y="-63.8" font-family="Times New Roman,serif" font-size="14.00">BnF 354</text>
</g>
<!-- 8 -->
<g id="node8" class="node"><title>8</title>
<polygon fill="none" stroke="black" points="6034,-213 5916,-213 5916,-161 6034,-161 6034,-213"/>
<polygon fill="none" stroke="black" points="5925,-187 5925,-208 5957,-208 5957,-187 5925,-187"/>
<text text-anchor="start" x="5928" y="-194.8" font-family="Times New Roman,serif" font-weight="bold" font-size="14.00">que</text>
<polygon fill="none" stroke="black" points="5957,-187 5957,-208 6025,-208 6025,-187 5957,-187"/>
<text text-anchor="start" x="5960" y="-194.8" font-family="Times New Roman,serif" font-weight="bold" font-size="14.00">Sigla</text>
<polygon fill="none" stroke="black" points="5925,-166 5925,-187 5957,-187 5957,-166 5925,-166"/>
<text text-anchor="start" x="5928" y="-172.8" font-family="Bukyvede" font-size="14.00">que</text>
<polygon fill="none" stroke="black" points="5957,-166 5957,-187 6025,-187 6025,-166 5957,-166"/>
<text text-anchor="start" x="5960" y="-172.8" font-family="Times New Roman,serif" font-size="14.00">BnF 16998</text>
<polygon fill="none" stroke="black" points="5924,-165 5924,-209 6026,-209 6026,-165 5924,-165"/>
</g>
<!-- 7&#45;&gt;8 -->
<g id="edge10" class="edge"><title>7&#45;&gt;8</title>
<path fill="none" stroke="black" d="M5818.23,-164.178C5848.6,-168.628 5879.49,-173.153 5905.67,-176.989"/>
<polygon fill="black" stroke="black" points="5905.43,-180.491 5915.83,-178.478 5906.44,-173.565 5905.43,-180.491"/>
<text text-anchor="middle" x="5867" y="-178.8" font-family="Times New Roman,serif" font-size="14.00">BnF 16998</text>
</g>
<!-- 9 -->
<g id="node9" class="node"><title>9</title>
<polygon fill="none" stroke="black" points="6025.5,-143 5924.5,-143 5924.5,-91 6025.5,-91 6025.5,-143"/>
<polygon fill="none" stroke="black" points="5934,-117 5934,-138 5962,-138 5962,-117 5934,-117"/>
<text text-anchor="start" x="5937" y="-124.8" font-family="Times New Roman,serif" font-weight="bold" font-size="14.00">qui</text>
<polygon fill="none" stroke="black" points="5962,-117 5962,-138 6017,-138 6017,-117 5962,-117"/>
<text text-anchor="start" x="5965" y="-124.8" font-family="Times New Roman,serif" font-weight="bold" font-size="14.00">Sigla</text>
<polygon fill="none" stroke="black" points="5934,-96 5934,-117 5962,-117 5962,-96 5934,-96"/>
<text text-anchor="start" x="5937" y="-102.8" font-family="Bukyvede" font-size="14.00">qui</text>
<polygon fill="none" stroke="black" points="5962,-96 5962,-117 6017,-117 6017,-96 5962,-96"/>
<text text-anchor="start" x="5965" y="-102.8" font-family="Times New Roman,serif" font-size="14.00">BnF 354</text>
<polygon fill="none" stroke="black" points="5932.5,-95 5932.5,-139 6017.5,-139 6017.5,-95 5932.5,-95"/>
</g>
<!-- 7&#45;&gt;9 -->
<g id="edge11" class="edge"><title>7&#45;&gt;9</title>
<path fill="none" stroke="black" d="M5818.23,-131.33C5852.05,-128.218 5886.52,-125.048 5914.4,-122.483"/>
<polygon fill="black" stroke="black" points="5914.73,-125.968 5924.36,-121.566 5914.09,-118.997 5914.73,-125.968"/>
<text text-anchor="middle" x="5867" y="-132.8" font-family="Times New Roman,serif" font-size="14.00">BnF 354</text>
</g>
<!-- 10 -->
<g id="node10" class="node"><title>10</title>
<polygon fill="none" stroke="black" points="6406,-182 6132,-182 6132,-130 6406,-130 6406,-182"/>
<polygon fill="none" stroke="black" points="6141,-156 6141,-177 6273,-177 6273,-156 6141,-156"/>
<text text-anchor="start" x="6144" y="-163.8" font-family="Times New Roman,serif" font-weight="bold" font-size="14.00">bien soit il venus.</text>
<polygon fill="none" stroke="black" points="6273,-156 6273,-177 6397,-177 6397,-156 6273,-156"/>
<text text-anchor="start" x="6276" y="-163.8" font-family="Times New Roman,serif" font-weight="bold" font-size="14.00">Sigla</text>
<polygon fill="none" stroke="black" points="6141,-135 6141,-156 6273,-156 6273,-135 6141,-135"/>
<text text-anchor="start" x="6144" y="-141.8" font-family="Bukyvede" font-size="14.00">bien soit il venus .</text>
<polygon fill="none" stroke="black" points="6273,-135 6273,-156 6397,-156 6397,-135 6273,-135"/>
<text text-anchor="start" x="6276" y="-141.8" font-family="Times New Roman,serif" font-size="14.00">BnF 16998, BnF 354</text>
<polygon fill="none" stroke="black" points="6140,-134 6140,-178 6398,-178 6398,-134 6140,-134"/>
</g>
<!-- 8&#45;&gt;10 -->
<g id="edge12" class="edge"><title>8&#45;&gt;10</title>
<path fill="none" stroke="black" d="M6034.04,-180.838C6059.48,-178.138 6090.6,-174.834 6121.73,-171.529"/>
<polygon fill="black" stroke="black" points="6122.26,-174.992 6131.83,-170.456 6121.52,-168.032 6122.26,-174.992"/>
<text text-anchor="middle" x="6083" y="-181.8" font-family="Times New Roman,serif" font-size="14.00">BnF 16998</text>
</g>
<!-- 9&#45;&gt;10 -->
<g id="edge13" class="edge"><title>9&#45;&gt;10</title>
<path fill="none" stroke="black" d="M6025.53,-123.616C6052.34,-127.196 6087,-131.825 6121.68,-136.457"/>
<polygon fill="black" stroke="black" points="6121.57,-139.973 6131.94,-137.828 6122.49,-133.035 6121.57,-139.973"/>
<text text-anchor="middle" x="6083" y="-138.8" font-family="Times New Roman,serif" font-size="14.00">BnF 354</text>
</g>
<!-- 18 -->
<g id="node18" class="node"><title>18</title>
<polygon fill="none" stroke="black" points="6614,-174 6560,-174 6560,-138 6614,-138 6614,-174"/>
<text text-anchor="middle" x="6587" y="-152.3" font-family="Times New Roman,serif" font-size="14.00">18</text>
</g>
<!-- 10&#45;&gt;18 -->
<g id="edge14" class="edge"><title>10&#45;&gt;18</title>
<path fill="none" stroke="black" d="M6406.31,-156C6458.68,-156 6514.3,-156 6549.55,-156"/>
<polygon fill="black" stroke="black" points="6549.81,-159.5 6559.81,-156 6549.81,-152.5 6549.81,-159.5"/>
<text text-anchor="middle" x="6483" y="-159.8" font-family="Times New Roman,serif" font-size="14.00">BnF 16998, BnF 354</text>
</g>
<!-- 12 -->
<g id="node12" class="node"><title>12</title>
<polygon fill="none" stroke="black" points="2838,-115 2291,-115 2291,-63 2838,-63 2838,-115"/>
<polygon fill="none" stroke="black" points="2300.5,-89 2300.5,-110 2705.5,-110 2705.5,-89 2300.5,-89"/>
<text text-anchor="start" x="2303.5" y="-96.8" font-family="Times New Roman,serif" font-weight="bold" font-size="14.00">torne cele part por herbergier et quant il vint a la porte si</text>
<polygon fill="none" stroke="black" points="2705.5,-89 2705.5,-110 2829.5,-110 2829.5,-89 2705.5,-89"/>
<text text-anchor="start" x="2708.5" y="-96.8" font-family="Times New Roman,serif" font-weight="bold" font-size="14.00">Sigla</text>
<polygon fill="none" stroke="black" points="2300.5,-68 2300.5,-89 2705.5,-89 2705.5,-68 2300.5,-68"/>
<text text-anchor="start" x="2303.5" y="-74.8" font-family="Bukyvede" font-size="14.00">torne cele part por herbergier et quant il vint a la porte si</text>
<polygon fill="none" stroke="black" points="2705.5,-68 2705.5,-89 2829.5,-89 2829.5,-68 2705.5,-68"/>
<text text-anchor="start" x="2708.5" y="-74.8" font-family="Times New Roman,serif" font-size="14.00">BnF 16998, BnF 354</text>
<polygon fill="none" stroke="black" points="2299,-67 2299,-111 2830,-111 2830,-67 2299,-67"/>
</g>
<!-- 11&#45;&gt;12 -->
<g id="edge15" class="edge"><title>11&#45;&gt;12</title>
<path fill="none" stroke="black" d="M2193.19,-116.042C2217.3,-114.282 2247.68,-112.064 2280.62,-109.658"/>
<polygon fill="black" stroke="black" points="2281.2,-113.125 2290.92,-108.906 2280.69,-106.143 2281.2,-113.125"/>
<text text-anchor="middle" x="2242" y="-117.8" font-family="Times New Roman,serif" font-size="14.00">BnF 16998</text>
</g>
<!-- 19 -->
<g id="node19" class="node"><title>19</title>
<polygon fill="none" stroke="black" points="3067.5,-158 2942.5,-158 2942.5,-106 3067.5,-106 3067.5,-158"/>
<polygon fill="none" stroke="black" points="2952,-132 2952,-153 3004,-153 3004,-132 2952,-132"/>
<text text-anchor="start" x="2955" y="-139.8" font-family="Times New Roman,serif" font-weight="bold" font-size="14.00">troeve</text>
<polygon fill="none" stroke="black" points="3004,-132 3004,-153 3059,-153 3059,-132 3004,-132"/>
<text text-anchor="start" x="3007" y="-139.8" font-family="Times New Roman,serif" font-weight="bold" font-size="14.00">Sigla</text>
<polygon fill="none" stroke="black" points="2952,-111 2952,-132 3004,-132 3004,-111 2952,-111"/>
<text text-anchor="start" x="2955" y="-117.8" font-family="Bukyvede" font-size="14.00">troeve</text>
<polygon fill="none" stroke="black" points="3004,-111 3004,-132 3059,-132 3059,-111 3004,-111"/>
<text text-anchor="start" x="3007" y="-117.8" font-family="Times New Roman,serif" font-size="14.00">BnF 354</text>
<polygon fill="none" stroke="black" points="2950.5,-110 2950.5,-154 3059.5,-154 3059.5,-110 2950.5,-110"/>
</g>
<!-- 12&#45;&gt;19 -->
<g id="edge16" class="edge"><title>12&#45;&gt;19</title>
<path fill="none" stroke="black" d="M2830.69,-115.005C2867.96,-118.66 2903.38,-122.133 2932.37,-124.975"/>
<polygon fill="black" stroke="black" points="2932.05,-128.461 2942.34,-125.954 2932.73,-121.494 2932.05,-128.461"/>
<text text-anchor="middle" x="2887" y="-125.8" font-family="Times New Roman,serif" font-size="14.00">BnF 354</text>
</g>
<!-- 21 -->
<g id="node21" class="node"><title>21</title>
<polygon fill="none" stroke="black" points="3074,-88 2936,-88 2936,-36 3074,-36 3074,-88"/>
<polygon fill="none" stroke="black" points="2945,-62 2945,-83 2997,-83 2997,-62 2945,-62"/>
<text text-anchor="start" x="2948" y="-69.8" font-family="Times New Roman,serif" font-weight="bold" font-size="14.00">trouve</text>
<polygon fill="none" stroke="black" points="2997,-62 2997,-83 3065,-83 3065,-62 2997,-62"/>
<text text-anchor="start" x="3000" y="-69.8" font-family="Times New Roman,serif" font-weight="bold" font-size="14.00">Sigla</text>
<polygon fill="none" stroke="black" points="2945,-41 2945,-62 2997,-62 2997,-41 2945,-41"/>
<text text-anchor="start" x="2948" y="-47.8" font-family="Bukyvede" font-size="14.00">trouve</text>
<polygon fill="none" stroke="black" points="2997,-41 2997,-62 3065,-62 3065,-41 2997,-41"/>
<text text-anchor="start" x="3000" y="-47.8" font-family="Times New Roman,serif" font-size="14.00">BnF 16998</text>
<polygon fill="none" stroke="black" points="2944,-40 2944,-84 3066,-84 3066,-40 2944,-40"/>
</g>
<!-- 12&#45;&gt;21 -->
<g id="edge17" class="edge"><title>12&#45;&gt;21</title>
<path fill="none" stroke="black" d="M2838.22,-72.2075C2870.05,-70.2478 2900.28,-68.3867 2925.99,-66.8034"/>
<polygon fill="black" stroke="black" points="2926.22,-70.296 2935.98,-66.188 2925.79,-63.3093 2926.22,-70.296"/>
<text text-anchor="middle" x="2887" y="-73.8" font-family="Times New Roman,serif" font-size="14.00">BnF 16998</text>
</g>
<!-- 13 -->
<g id="node13" class="node"><title>13</title>
<polygon fill="none" stroke="black" points="4406.5,-182 4284.5,-182 4284.5,-130 4406.5,-130 4406.5,-182"/>
<polygon fill="none" stroke="black" points="4293.5,-156 4293.5,-177 4342.5,-177 4342.5,-156 4293.5,-156"/>
<text text-anchor="start" x="4296.5" y="-163.8" font-family="Times New Roman,serif" font-weight="bold" font-size="14.00">serain</text>
<polygon fill="none" stroke="black" points="4342.5,-156 4342.5,-177 4397.5,-177 4397.5,-156 4342.5,-156"/>
<text text-anchor="start" x="4345.5" y="-163.8" font-family="Times New Roman,serif" font-weight="bold" font-size="14.00">Sigla</text>
<polygon fill="none" stroke="black" points="4293.5,-135 4293.5,-156 4342.5,-156 4342.5,-135 4293.5,-135"/>
<text text-anchor="start" x="4296.5" y="-141.8" font-family="Bukyvede" font-size="14.00">serain</text>
<polygon fill="none" stroke="black" points="4342.5,-135 4342.5,-156 4397.5,-156 4397.5,-135 4342.5,-135"/>
<text text-anchor="start" x="4345.5" y="-141.8" font-family="Times New Roman,serif" font-size="14.00">BnF 354</text>
<polygon fill="none" stroke="black" points="4292.5,-134 4292.5,-178 4398.5,-178 4398.5,-134 4292.5,-134"/>
</g>
<!-- 13&#45;&gt;2 -->
<g id="edge18" class="edge"><title>13&#45;&gt;2</title>
<path fill="none" stroke="black" d="M4406.65,-148.496C4434.91,-144.971 4469.26,-140.686 4500.84,-136.746"/>
<polygon fill="black" stroke="black" points="4501.5,-140.191 4510.99,-135.48 4500.63,-133.245 4501.5,-140.191"/>
<text text-anchor="middle" x="4462" y="-148.8" font-family="Times New Roman,serif" font-size="14.00">BnF 354</text>
</g>
<!-- 14&#45;&gt;12 -->
<g id="edge19" class="edge"><title>14&#45;&gt;12</title>
<path fill="none" stroke="black" d="M2191.05,-54.7822C2215.53,-57.0315 2246.82,-59.9054 2280.82,-63.0291"/>
<polygon fill="black" stroke="black" points="2280.68,-66.5315 2290.96,-63.9611 2281.32,-59.5609 2280.68,-66.5315"/>
<text text-anchor="middle" x="2242" y="-64.8" font-family="Times New Roman,serif" font-size="14.00">BnF 354</text>
</g>
<!-- 15 -->
<g id="node15" class="node"><title>15</title>
<polygon fill="none" stroke="black" points="3793,-170 3665,-170 3665,-118 3793,-118 3793,-170"/>
<polygon fill="none" stroke="black" points="3674,-144 3674,-165 3729,-165 3729,-144 3674,-144"/>
<text text-anchor="start" x="3677" y="-151.8" font-family="Times New Roman,serif" font-weight="bold" font-size="14.00">conplie</text>
<polygon fill="none" stroke="black" points="3729,-144 3729,-165 3784,-165 3784,-144 3729,-144"/>
<text text-anchor="start" x="3732" y="-151.8" font-family="Times New Roman,serif" font-weight="bold" font-size="14.00">Sigla</text>
<polygon fill="none" stroke="black" points="3674,-123 3674,-144 3729,-144 3729,-123 3674,-123"/>
<text text-anchor="start" x="3677" y="-129.8" font-family="Bukyvede" font-size="14.00">conplie</text>
<polygon fill="none" stroke="black" points="3729,-123 3729,-144 3784,-144 3784,-123 3729,-123"/>
<text text-anchor="start" x="3732" y="-129.8" font-family="Times New Roman,serif" font-size="14.00">BnF 354</text>
<polygon fill="none" stroke="black" points="3673,-122 3673,-166 3785,-166 3785,-122 3673,-122"/>
</g>
<!-- 29 -->
<g id="node29" class="node"><title>29</title>
<polygon fill="none" stroke="black" points="4180,-139 3914,-139 3914,-87 4180,-87 4180,-139"/>
<polygon fill="none" stroke="black" points="3923,-113 3923,-134 4047,-134 4047,-113 3923,-113"/>
<text text-anchor="start" x="3926" y="-120.8" font-family="Times New Roman,serif" font-weight="bold" font-size="14.00">estoient venu au</text>
<polygon fill="none" stroke="black" points="4047,-113 4047,-134 4171,-134 4171,-113 4047,-113"/>
<text text-anchor="start" x="4050" y="-120.8" font-family="Times New Roman,serif" font-weight="bold" font-size="14.00">Sigla</text>
<polygon fill="none" stroke="black" points="3923,-92 3923,-113 4047,-113 4047,-92 3923,-92"/>
<text text-anchor="start" x="3926" y="-98.8" font-family="Bukyvede" font-size="14.00">estoient venu au</text>
<polygon fill="none" stroke="black" points="4047,-92 4047,-113 4171,-113 4171,-92 4047,-92"/>
<text text-anchor="start" x="4050" y="-98.8" font-family="Times New Roman,serif" font-size="14.00">BnF 16998, BnF 354</text>
<polygon fill="none" stroke="black" points="3922,-91 3922,-135 4172,-135 4172,-91 3922,-91"/>
</g>
<!-- 15&#45;&gt;29 -->
<g id="edge20" class="edge"><title>15&#45;&gt;29</title>
<path fill="none" stroke="black" d="M3793.19,-137.801C3824.93,-134.687 3864.78,-130.778 3903.39,-126.99"/>
<polygon fill="black" stroke="black" points="3904.09,-130.438 3913.7,-125.978 3903.41,-123.472 3904.09,-130.438"/>
<text text-anchor="middle" x="3865" y="-136.8" font-family="Times New Roman,serif" font-size="14.00">BnF 354</text>
</g>
<!-- 16 -->
<g id="node16" class="node"><title>16</title>
<polygon fill="none" stroke="black" points="839,-122 738,-122 738,-70 839,-70 839,-122"/>
<polygon fill="none" stroke="black" points="747.5,-96 747.5,-117 775.5,-117 775.5,-96 747.5,-96"/>
<text text-anchor="start" x="750.5" y="-103.8" font-family="Times New Roman,serif" font-weight="bold" font-size="14.00">qui</text>
<polygon fill="none" stroke="black" points="775.5,-96 775.5,-117 830.5,-117 830.5,-96 775.5,-96"/>
<text text-anchor="start" x="778.5" y="-103.8" font-family="Times New Roman,serif" font-weight="bold" font-size="14.00">Sigla</text>
<polygon fill="none" stroke="black" points="747.5,-75 747.5,-96 775.5,-96 775.5,-75 747.5,-75"/>
<text text-anchor="start" x="750.5" y="-81.8" font-family="Bukyvede" font-size="14.00">qui</text>
<polygon fill="none" stroke="black" points="775.5,-75 775.5,-96 830.5,-96 830.5,-75 775.5,-75"/>
<text text-anchor="start" x="778.5" y="-81.8" font-family="Times New Roman,serif" font-size="14.00">BnF 354</text>
<polygon fill="none" stroke="black" points="746,-74 746,-118 831,-118 831,-74 746,-74"/>
</g>
<!-- 27 -->
<g id="node27" class="node"><title>27</title>
<polygon fill="none" stroke="black" points="1300,-91 951,-91 951,-39 1300,-39 1300,-91"/>
<polygon fill="none" stroke="black" points="960.5,-65 960.5,-86 1167.5,-86 1167.5,-65 960.5,-65"/>
<text text-anchor="start" x="963.5" y="-72.8" font-family="Times New Roman,serif" font-weight="bold" font-size="14.00">vint a l&#39; issue de la forest, si</text>
<polygon fill="none" stroke="black" points="1167.5,-65 1167.5,-86 1291.5,-86 1291.5,-65 1167.5,-65"/>
<text text-anchor="start" x="1170.5" y="-72.8" font-family="Times New Roman,serif" font-weight="bold" font-size="14.00">Sigla</text>
<polygon fill="none" stroke="black" points="960.5,-44 960.5,-65 1167.5,-65 1167.5,-44 960.5,-44"/>
<text text-anchor="start" x="963.5" y="-50.8" font-family="Bukyvede" font-size="14.00">vint a l &#39; issue de la forest , si</text>
<polygon fill="none" stroke="black" points="1167.5,-44 1167.5,-65 1291.5,-65 1291.5,-44 1167.5,-44"/>
<text text-anchor="start" x="1170.5" y="-50.8" font-family="Times New Roman,serif" font-size="14.00">BnF 16998, BnF 354</text>
<polygon fill="none" stroke="black" points="959,-43 959,-87 1292,-87 1292,-43 959,-43"/>
</g>
<!-- 16&#45;&gt;27 -->
<g id="edge21" class="edge"><title>16&#45;&gt;27</title>
<path fill="none" stroke="black" d="M839.291,-91.3925C866.982,-88.83 903.351,-85.4645 940.81,-81.9981"/>
<polygon fill="black" stroke="black" points="941.238,-85.4736 950.873,-81.0669 940.593,-78.5034 941.238,-85.4736"/>
<text text-anchor="middle" x="902" y="-90.8" font-family="Times New Roman,serif" font-size="14.00">BnF 354</text>
</g>
<!-- 17 -->
<g id="node17" class="node"><title>17</title>
<polygon fill="none" stroke="black" points="54,-78 0,-78 0,-42 54,-42 54,-78"/>
<text text-anchor="middle" x="27" y="-56.3" font-family="Times New Roman,serif" font-size="14.00">17</text>
</g>
<!-- 20 -->
<g id="node20" class="node"><title>20</title>
<polygon fill="none" stroke="black" points="350,-122 152,-122 152,-70 350,-70 350,-122"/>
<polygon fill="none" stroke="black" points="161,-96 161,-117 273,-117 273,-96 161,-96"/>
<text text-anchor="start" x="164" y="-103.8" font-family="Times New Roman,serif" font-weight="bold" font-size="14.00">Et il chevauche</text>
<polygon fill="none" stroke="black" points="273,-96 273,-117 341,-117 341,-96 273,-96"/>
<text text-anchor="start" x="276" y="-103.8" font-family="Times New Roman,serif" font-weight="bold" font-size="14.00">Sigla</text>
<polygon fill="none" stroke="black" points="161,-75 161,-96 273,-96 273,-75 161,-75"/>
<text text-anchor="start" x="164" y="-81.8" font-family="Bukyvede" font-size="14.00">Et il chevauche</text>
<polygon fill="none" stroke="black" points="273,-75 273,-96 341,-96 341,-75 273,-75"/>
<text text-anchor="start" x="276" y="-81.8" font-family="Times New Roman,serif" font-size="14.00">BnF 16998</text>
<polygon fill="none" stroke="black" points="160,-74 160,-118 342,-118 342,-74 160,-74"/>
</g>
<!-- 17&#45;&gt;20 -->
<g id="edge22" class="edge"><title>17&#45;&gt;20</title>
<path fill="none" stroke="black" d="M54.3381,-64.271C76.3004,-67.8325 109.15,-73.1594 141.69,-78.4362"/>
<polygon fill="black" stroke="black" points="141.335,-81.9244 151.767,-80.0703 142.456,-75.0146 141.335,-81.9244"/>
<text text-anchor="middle" x="103" y="-79.8" font-family="Times New Roman,serif" font-size="14.00">BnF 16998</text>
</g>
<!-- 24 -->
<g id="node24" class="node"><title>24</title>
<polygon fill="none" stroke="black" points="626,-79 448,-79 448,-27 626,-27 626,-79"/>
<polygon fill="none" stroke="black" points="457,-53 457,-74 493,-74 493,-53 457,-53"/>
<text text-anchor="start" x="460" y="-60.8" font-family="Times New Roman,serif" font-weight="bold" font-size="14.00">tant</text>
<polygon fill="none" stroke="black" points="493,-53 493,-74 617,-74 617,-53 493,-53"/>
<text text-anchor="start" x="496" y="-60.8" font-family="Times New Roman,serif" font-weight="bold" font-size="14.00">Sigla</text>
<polygon fill="none" stroke="black" points="457,-32 457,-53 493,-53 493,-32 457,-32"/>
<text text-anchor="start" x="460" y="-38.8" font-family="Bukyvede" font-size="14.00">tant</text>
<polygon fill="none" stroke="black" points="493,-32 493,-53 617,-53 617,-32 493,-32"/>
<text text-anchor="start" x="496" y="-38.8" font-family="Times New Roman,serif" font-size="14.00">BnF 16998, BnF 354</text>
<polygon fill="none" stroke="black" points="456,-31 456,-75 618,-75 618,-31 456,-31"/>
</g>
<!-- 17&#45;&gt;24 -->
<g id="edge23" class="edge"><title>17&#45;&gt;24</title>
<path fill="none" stroke="black" d="M54.0541,-56.1956C79.0962,-52.7436 118.04,-47.911 152,-46 249.001,-40.5415 359.981,-43.5643 437.603,-47.1821"/>
<polygon fill="black" stroke="black" points="437.696,-50.6905 447.852,-47.6723 438.031,-43.6985 437.696,-50.6905"/>
<text text-anchor="middle" x="251" y="-49.8" font-family="Times New Roman,serif" font-size="14.00">BnF 354</text>
</g>
<!-- 23 -->
<g id="node23" class="node"><title>23</title>
<polygon fill="none" stroke="black" points="3544,-127 3172,-127 3172,-75 3544,-75 3544,-127"/>
<polygon fill="none" stroke="black" points="3181,-101 3181,-122 3411,-122 3411,-101 3181,-101"/>
<text text-anchor="start" x="3184" y="-108.8" font-family="Times New Roman,serif" font-weight="bold" font-size="14.00">IIII des freres qui avoient chante</text>
<polygon fill="none" stroke="black" points="3411,-101 3411,-122 3535,-122 3535,-101 3411,-101"/>
<text text-anchor="start" x="3414" y="-108.8" font-family="Times New Roman,serif" font-weight="bold" font-size="14.00">Sigla</text>
<polygon fill="none" stroke="black" points="3181,-80 3181,-101 3411,-101 3411,-80 3181,-80"/>
<text text-anchor="start" x="3184" y="-86.8" font-family="Bukyvede" font-size="14.00">IIII des freres qui avoient chante</text>
<polygon fill="none" stroke="black" points="3411,-80 3411,-101 3535,-101 3535,-80 3411,-80"/>
<text text-anchor="start" x="3414" y="-86.8" font-family="Times New Roman,serif" font-size="14.00">BnF 16998, BnF 354</text>
<polygon fill="none" stroke="black" points="3180,-79 3180,-123 3536,-123 3536,-79 3180,-79"/>
</g>
<!-- 19&#45;&gt;23 -->
<g id="edge24" class="edge"><title>19&#45;&gt;23</title>
<path fill="none" stroke="black" d="M3067.54,-126.565C3094.38,-124.194 3127.49,-121.27 3161.62,-118.256"/>
<polygon fill="black" stroke="black" points="3162.09,-121.728 3171.75,-117.362 3161.48,-114.755 3162.09,-121.728"/>
<text text-anchor="middle" x="3123" y="-126.8" font-family="Times New Roman,serif" font-size="14.00">BnF 354</text>
</g>
<!-- 20&#45;&gt;24 -->
<g id="edge25" class="edge"><title>20&#45;&gt;24</title>
<path fill="none" stroke="black" d="M350.134,-81.1416C378.532,-76.8421 409.524,-72.1495 437.918,-67.8504"/>
<polygon fill="black" stroke="black" points="438.481,-71.3052 447.845,-66.3475 437.433,-64.384 438.481,-71.3052"/>
<text text-anchor="middle" x="399" y="-81.8" font-family="Times New Roman,serif" font-size="14.00">BnF 16998</text>
</g>
<!-- 21&#45;&gt;23 -->
<g id="edge26" class="edge"><title>21&#45;&gt;23</title>
<path fill="none" stroke="black" d="M3074.09,-69.5658C3099.64,-72.4041 3130.11,-75.7905 3161.46,-79.2729"/>
<polygon fill="black" stroke="black" points="3161.33,-82.7805 3171.66,-80.4064 3162.1,-75.8234 3161.33,-82.7805"/>
<text text-anchor="middle" x="3123" y="-81.8" font-family="Times New Roman,serif" font-size="14.00">BnF 16998</text>
</g>
<!-- 22&#45;&gt;5 -->
<g id="edge27" class="edge"><title>22&#45;&gt;5</title>
<path fill="none" stroke="black" d="M4918.33,-106.704C4947.17,-110.637 4982.29,-115.426 5016.01,-120.025"/>
<polygon fill="black" stroke="black" points="5015.57,-123.497 5025.95,-121.38 5016.52,-116.561 5015.57,-123.497"/>
<text text-anchor="middle" x="4977" y="-121.8" font-family="Times New Roman,serif" font-size="14.00">BnF 354</text>
</g>
<!-- 23&#45;&gt;15 -->
<g id="edge29" class="edge"><title>23&#45;&gt;15</title>
<path fill="none" stroke="black" d="M3544.04,-122.563C3583.31,-127.139 3622.54,-131.711 3654.63,-135.45"/>
<polygon fill="black" stroke="black" points="3654.45,-138.953 3664.79,-136.634 3655.26,-132 3654.45,-138.953"/>
<text text-anchor="middle" x="3593" y="-134.8" font-family="Times New Roman,serif" font-size="14.00">BnF 354</text>
</g>
<!-- 28 -->
<g id="node28" class="node"><title>28</title>
<polygon fill="none" stroke="black" points="3816,-100 3642,-100 3642,-48 3816,-48 3816,-100"/>
<polygon fill="none" stroke="black" points="3651,-74 3651,-95 3739,-95 3739,-74 3651,-74"/>
<text text-anchor="start" x="3654" y="-81.8" font-family="Times New Roman,serif" font-weight="bold" font-size="14.00">complie que</text>
<polygon fill="none" stroke="black" points="3739,-74 3739,-95 3807,-95 3807,-74 3739,-74"/>
<text text-anchor="start" x="3742" y="-81.8" font-family="Times New Roman,serif" font-weight="bold" font-size="14.00">Sigla</text>
<polygon fill="none" stroke="black" points="3651,-53 3651,-74 3739,-74 3739,-53 3651,-53"/>
<text text-anchor="start" x="3654" y="-59.8" font-family="Bukyvede" font-size="14.00">complie que</text>
<polygon fill="none" stroke="black" points="3739,-53 3739,-74 3807,-74 3807,-53 3739,-53"/>
<text text-anchor="start" x="3742" y="-59.8" font-family="Times New Roman,serif" font-size="14.00">BnF 16998</text>
<polygon fill="none" stroke="black" points="3650,-52 3650,-96 3808,-96 3808,-52 3650,-52"/>
</g>
<!-- 23&#45;&gt;28 -->
<g id="edge28" class="edge"><title>23&#45;&gt;28</title>
<path fill="none" stroke="black" d="M3544.04,-87.4604C3574.34,-85.2437 3604.61,-83.0283 3631.6,-81.0535"/>
<polygon fill="black" stroke="black" points="3632.06,-84.5294 3641.78,-80.3089 3631.55,-77.548 3632.06,-84.5294"/>
<text text-anchor="middle" x="3593" y="-88.8" font-family="Times New Roman,serif" font-size="14.00">BnF 16998</text>
</g>
<!-- 24&#45;&gt;16 -->
<g id="edge30" class="edge"><title>24&#45;&gt;16</title>
<path fill="none" stroke="black" d="M626.315,-68.2207C659.943,-74.0162 697.442,-80.479 727.803,-85.7116"/>
<polygon fill="black" stroke="black" points="727.361,-89.1868 737.81,-87.4362 728.55,-82.2885 727.361,-89.1868"/>
<text text-anchor="middle" x="675" y="-83.8" font-family="Times New Roman,serif" font-size="14.00">BnF 354</text>
</g>
<!-- 25 -->
<g id="node25" class="node"><title>25</title>
<polygon fill="none" stroke="black" points="853,-52 724,-52 724,-0 853,-0 853,-52"/>
<polygon fill="none" stroke="black" points="733.5,-26 733.5,-47 776.5,-47 776.5,-26 733.5,-26"/>
<text text-anchor="start" x="736.5" y="-33.8" font-family="Times New Roman,serif" font-weight="bold" font-size="14.00">qu&#39; il</text>
<polygon fill="none" stroke="black" points="776.5,-26 776.5,-47 844.5,-47 844.5,-26 776.5,-26"/>
<text text-anchor="start" x="779.5" y="-33.8" font-family="Times New Roman,serif" font-weight="bold" font-size="14.00">Sigla</text>
<polygon fill="none" stroke="black" points="733.5,-5 733.5,-26 776.5,-26 776.5,-5 733.5,-5"/>
<text text-anchor="start" x="736.5" y="-11.8" font-family="Bukyvede" font-size="14.00">qu &#39; il</text>
<polygon fill="none" stroke="black" points="776.5,-5 776.5,-26 844.5,-26 844.5,-5 776.5,-5"/>
<text text-anchor="start" x="779.5" y="-11.8" font-family="Times New Roman,serif" font-size="14.00">BnF 16998</text>
<polygon fill="none" stroke="black" points="732,-4 732,-48 845,-48 845,-4 732,-4"/>
</g>
<!-- 24&#45;&gt;25 -->
<g id="edge31" class="edge"><title>24&#45;&gt;25</title>
<path fill="none" stroke="black" d="M626.315,-43.4428C654.781,-40.3624 686.02,-36.9818 713.356,-34.0236"/>
<polygon fill="black" stroke="black" points="714.062,-37.4677 723.628,-32.912 713.309,-30.5083 714.062,-37.4677"/>
<text text-anchor="middle" x="675" y="-45.8" font-family="Times New Roman,serif" font-size="14.00">BnF 16998</text>
</g>
<!-- 25&#45;&gt;27 -->
<g id="edge32" class="edge"><title>25&#45;&gt;27</title>
<path fill="none" stroke="black" d="M853.299,-33.4274C878.652,-36.3789 909.23,-39.9387 940.582,-43.5886"/>
<polygon fill="black" stroke="black" points="940.445,-47.0963 950.783,-44.7762 941.255,-40.1432 940.445,-47.0963"/>
<text text-anchor="middle" x="902" y="-46.8" font-family="Times New Roman,serif" font-size="14.00">BnF 16998</text>
</g>
<!-- 26 -->
<g id="node26" class="node"><title>26</title>
<polygon fill="none" stroke="black" points="1507,-64 1400,-64 1400,-12 1507,-12 1507,-64"/>
<polygon fill="none" stroke="black" points="1409.5,-38 1409.5,-59 1443.5,-59 1443.5,-38 1409.5,-38"/>
<text text-anchor="start" x="1412.5" y="-45.8" font-family="Times New Roman,serif" font-weight="bold" font-size="14.00">vint</text>
<polygon fill="none" stroke="black" points="1443.5,-38 1443.5,-59 1498.5,-59 1498.5,-38 1443.5,-38"/>
<text text-anchor="start" x="1446.5" y="-45.8" font-family="Times New Roman,serif" font-weight="bold" font-size="14.00">Sigla</text>
<polygon fill="none" stroke="black" points="1409.5,-17 1409.5,-38 1443.5,-38 1443.5,-17 1409.5,-17"/>
<text text-anchor="start" x="1412.5" y="-23.8" font-family="Bukyvede" font-size="14.00">vint</text>
<polygon fill="none" stroke="black" points="1443.5,-17 1443.5,-38 1498.5,-38 1498.5,-17 1443.5,-17"/>
<text text-anchor="start" x="1446.5" y="-23.8" font-family="Times New Roman,serif" font-size="14.00">BnF 354</text>
<polygon fill="none" stroke="black" points="1408,-16 1408,-60 1499,-60 1499,-16 1408,-16"/>
</g>
<!-- 26&#45;&gt;6 -->
<g id="edge33" class="edge"><title>26&#45;&gt;6</title>
<path fill="none" stroke="black" d="M1507.33,-44.051C1532.21,-46.9012 1563.62,-50.4989 1596.48,-54.2621"/>
<polygon fill="black" stroke="black" points="1596.38,-57.7739 1606.72,-55.4346 1597.18,-50.8194 1596.38,-57.7739"/>
<text text-anchor="middle" x="1558" y="-56.8" font-family="Times New Roman,serif" font-size="14.00">BnF 354</text>
</g>
<!-- 27&#45;&gt;4 -->
<g id="edge34" class="edge"><title>27&#45;&gt;4</title>
<path fill="none" stroke="black" d="M1300.48,-87.9478C1331.55,-92.046 1362.08,-96.0738 1387.54,-99.4318"/>
<polygon fill="black" stroke="black" points="1387.39,-102.942 1397.76,-100.78 1388.31,-96.0024 1387.39,-102.942"/>
<text text-anchor="middle" x="1349" y="-100.8" font-family="Times New Roman,serif" font-size="14.00">BnF 16998</text>
</g>
<!-- 27&#45;&gt;26 -->
<g id="edge35" class="edge"><title>27&#45;&gt;26</title>
<path fill="none" stroke="black" d="M1300.48,-50.5909C1332.49,-47.9396 1363.93,-45.3353 1389.84,-43.1894"/>
<polygon fill="black" stroke="black" points="1390.18,-46.6736 1399.86,-42.3601 1389.6,-39.6975 1390.18,-46.6736"/>
<text text-anchor="middle" x="1349" y="-53.8" font-family="Times New Roman,serif" font-size="14.00">BnF 354</text>
</g>
<!-- 28&#45;&gt;29 -->
<g id="edge36" class="edge"><title>28&#45;&gt;29</title>
<path fill="none" stroke="black" d="M3816.35,-84.6569C3843.36,-87.9901 3873.91,-91.7606 3903.71,-95.4383"/>
<polygon fill="black" stroke="black" points="3903.42,-98.9298 3913.78,-96.6812 3904.28,-91.9826 3903.42,-98.9298"/>
<text text-anchor="middle" x="3865" y="-96.8" font-family="Times New Roman,serif" font-size="14.00">BnF 16998</text>
</g>
<!-- 29&#45;&gt;13 -->
<g id="edge37" class="edge"><title>29&#45;&gt;13</title>
<path fill="none" stroke="black" d="M4180.21,-132.173C4212.53,-136.861 4245.88,-141.697 4274.02,-145.778"/>
<polygon fill="black" stroke="black" points="4273.74,-149.274 4284.14,-147.246 4274.74,-142.346 4273.74,-149.274"/>
<text text-anchor="middle" x="4229" y="-146.8" font-family="Times New Roman,serif" font-size="14.00">BnF 354</text>
</g>
<!-- 30 -->
<g id="node30" class="node"><title>30</title>
<polygon fill="none" stroke="black" points="4413,-112 4278,-112 4278,-60 4413,-60 4413,-112"/>
<polygon fill="none" stroke="black" points="4287.5,-86 4287.5,-107 4336.5,-107 4336.5,-86 4287.5,-86"/>
<text text-anchor="start" x="4290.5" y="-93.8" font-family="Times New Roman,serif" font-weight="bold" font-size="14.00">serein</text>
<polygon fill="none" stroke="black" points="4336.5,-86 4336.5,-107 4404.5,-107 4404.5,-86 4336.5,-86"/>
<text text-anchor="start" x="4339.5" y="-93.8" font-family="Times New Roman,serif" font-weight="bold" font-size="14.00">Sigla</text>
<polygon fill="none" stroke="black" points="4287.5,-65 4287.5,-86 4336.5,-86 4336.5,-65 4287.5,-65"/>
<text text-anchor="start" x="4290.5" y="-71.8" font-family="Bukyvede" font-size="14.00">serein</text>
<polygon fill="none" stroke="black" points="4336.5,-65 4336.5,-86 4404.5,-86 4404.5,-65 4336.5,-65"/>
<text text-anchor="start" x="4339.5" y="-71.8" font-family="Times New Roman,serif" font-size="14.00">BnF 16998</text>
<polygon fill="none" stroke="black" points="4286,-64 4286,-108 4405,-108 4405,-64 4286,-64"/>
</g>
<!-- 29&#45;&gt;30 -->
<g id="edge38" class="edge"><title>29&#45;&gt;30</title>
<path fill="none" stroke="black" d="M4180.21,-100.961C4210.2,-98.23 4241.07,-95.4185 4267.85,-92.9804"/>
<polygon fill="black" stroke="black" points="4268.25,-96.4577 4277.9,-92.0652 4267.62,-89.4866 4268.25,-96.4577"/>
<text text-anchor="middle" x="4229" y="-101.8" font-family="Times New Roman,serif" font-size="14.00">BnF 16998</text>
</g>
<!-- 30&#45;&gt;2 -->
<g id="edge39" class="edge"><title>30&#45;&gt;2</title>
<path fill="none" stroke="black" d="M4413.09,-96.4513C4439.97,-100.67 4471.48,-105.614 4500.64,-110.191"/>
<polygon fill="black" stroke="black" points="4500.43,-113.701 4510.85,-111.793 4501.51,-106.785 4500.43,-113.701"/>
<text text-anchor="middle" x="4462" y="-110.8" font-family="Times New Roman,serif" font-size="14.00">BnF 16998</text>
</g>
</g>
</svg>
